<?xml version="1.0" encoding="utf-8"?>
<!-- Generator: Adobe Illustrator 28.1.0, SVG Export Plug-In . SVG Version: 6.00 Build 0)  -->
<svg version="1.1" id="_x31_" xmlns="http://www.w3.org/2000/svg" xmlns:xlink="http://www.w3.org/1999/xlink" x="0px" y="0px"
	 viewBox="0 0 600 400" enable-background="new 0 0 600 400" xml:space="preserve">
<rect fill="#259C3B" width="600" height="400"/>
<polygon fill="#F8E11E" points="300,40.124001 50.8311,200 300,359.876007 549.168884,200 "/>
<path fill="#1C2675" d="M318.586914,167.502396c41.669891,14.246597,68.559601,32.387207,84.927673,46.771011
	c0.637695-4.667908,0.974701-9.430603,0.974701-14.273407c0-57.707504-46.781281-104.4888-104.489288-104.4888
	c-42.609894,0-79.257294,25.507797-95.519501,62.084C234.615204,153.621094,276.128387,152.986298,318.586914,167.502396z"/>
<path fill="#1C2675" d="M198.740707,174.132797C196.633804,182.405304,195.5112,191.071304,195.5112,200
	c0,57.708008,46.781296,104.489288,104.4888,104.489288c46.973602,0,86.704102-30.997101,99.861298-73.651382
	c-17.743103-14.984406-45.817383-34.8452-81.973602-47.940002C268.70459,165.085907,219.5298,170.502899,198.740707,174.132797z"/>
<path fill="#FFFFFF" d="M318.586914,167.502396c-42.458527-14.516098-83.97171-13.881302-114.106415-9.907196
	c-2.354492,5.295395-4.283707,10.821808-5.739792,16.537598c20.789093-3.629898,69.963882-9.04689,119.146988,8.765106
	c36.156219,13.094803,64.230499,32.955597,81.973602,47.940002c1.650391-5.350601,2.877991-10.885803,3.65329-16.564499
	C387.146515,199.889603,360.256805,181.748993,318.586914,167.502396z"/>
<polygon fill="#FFFFFF" points="214.150894,176.794907 215.164597,179.914993 218.445297,179.914993 215.791504,181.843704 
	216.805206,184.963898 214.150894,183.035202 211.496597,184.963898 212.5103,181.843704 209.8564,179.914993 
	213.137207,179.914993 "/>
<polygon fill="#FFFFFF" points="223.807098,220.785202 224.820801,223.905304 228.101593,223.905304 225.4478,225.834 
	226.461395,228.954102 223.807098,227.025406 221.152802,228.954102 222.166504,225.834 219.512695,223.905304 
	222.793503,223.905304 "/>
<polygon fill="#FFFFFF" points="257.974091,251.118195 258.987793,254.238297 262.268585,254.238297 259.614685,256.166992 
	260.628387,259.287109 257.974091,257.358398 255.319794,259.287109 256.333496,256.166992 253.679703,254.238297 
	256.960388,254.238297 "/>
<polygon fill="#FFFFFF" points="300.180695,242.546906 301.194275,245.667007 304.474579,245.667007 301.821289,247.595703 
	302.834991,250.715805 300.180695,248.787094 297.526398,250.715805 298.540009,247.595703 295.8862,245.667007 
	299.166992,245.667007 "/>
<polygon fill="#FFFFFF" points="373.692413,232.451202 374.706085,235.571304 377.986298,235.571304 375.333008,237.5 
	376.34671,240.620102 373.692413,238.691406 371.038086,240.620102 372.051788,237.5 369.398407,235.571304 372.678711,235.571304 
	"/>
<polygon fill="#FFFFFF" points="332.692413,163.118195 333.706085,166.238297 336.986298,166.238297 334.333008,168.167007 
	335.34671,171.287094 332.692413,169.358398 330.038086,171.287094 331.051788,168.167007 328.398407,166.238297 
	331.678711,166.238297 "/>
<polygon fill="#FFFFFF" points="352.5,264.432587 353.300812,266.897491 355.892609,266.897491 353.795898,268.420898 
	354.59671,270.885712 352.5,269.362305 350.40329,270.885712 351.204102,268.420898 349.107391,266.897491 351.699188,266.897491 
	"/>
<polygon fill="#FFFFFF" points="371.533203,251.035202 372.334015,253.5 374.925812,253.5 372.829102,255.023407 
	373.629913,257.488312 371.533203,255.964798 369.436493,257.488312 370.237305,255.023407 368.140594,253.5 370.732391,253.5 "/>
<polygon fill="#FFFFFF" points="377.666992,242.832993 378.467804,245.297897 381.059601,245.297897 378.962891,246.821304 
	379.763702,249.286102 377.666992,247.762695 375.570312,249.286102 376.371094,246.821304 374.274414,245.297897 
	376.866211,245.297897 "/>
<polygon fill="#FFFFFF" points="331.199188,267.202087 332,269.666992 334.591797,269.666992 332.495087,271.190399 
	333.295898,273.655304 331.199188,272.131805 329.102509,273.655304 329.90329,271.190399 327.80661,269.666992 
	330.398407,269.666992 "/>
<polygon fill="#FFFFFF" points="312.199188,222.702103 313,225.167007 315.591797,225.167007 313.495087,226.690399 
	314.295898,229.155304 312.199188,227.631805 310.102509,229.155304 310.90329,226.690399 308.80658,225.167007 
	311.398407,225.167007 "/>
<polygon fill="#FFFFFF" points="300.199188,213.202103 301,215.667007 303.591797,215.667007 301.495087,217.190399 
	302.295898,219.655304 300.199188,218.131805 298.102478,219.655304 298.90329,217.190399 296.80658,215.667007 
	299.398407,215.667007 "/>
<polygon fill="#FFFFFF" points="260.032715,200.535202 260.833496,203 263.425293,203 261.328613,204.523407 262.129395,206.988297 
	260.032715,205.464798 257.936005,206.988297 258.736786,204.523407 256.640106,203 259.231903,203 "/>
<polygon fill="#FFFFFF" points="245.537598,232.011703 246.338394,234.476593 248.930206,234.476593 246.833496,236 
	247.634293,238.464798 245.537598,236.941406 243.440903,238.464798 244.241699,236 242.145004,234.476593 244.736801,234.476593 
	"/>
<polygon fill="#FFFFFF" points="242.370605,242.511703 243.171402,244.976593 245.763199,244.976593 243.666504,246.5 
	244.4673,248.964798 242.370605,247.441406 240.273895,248.964798 241.074707,246.5 238.977997,244.976593 241.569794,244.976593 
	"/>
<polygon fill="#FFFFFF" points="388.167999,235.013702 388.827087,237.041 390.959015,237.041 389.234406,238.294907 
	389.892609,240.322296 388.167999,239.069305 386.44339,240.322296 387.101593,238.294907 385.377014,237.041 387.508789,237.041 
	"/>
<polygon fill="#FFFFFF" points="363.02829,256.972687 363.6875,259 365.819305,259 364.094696,260.253906 364.752899,262.281189 
	363.02829,261.02829 361.303711,262.281189 361.961914,260.253906 360.237305,259 362.36911,259 "/>
<polygon fill="#FFFFFF" points="352.52829,275.847687 353.1875,277.875 355.319305,277.875 353.594696,279.128906 
	354.252899,281.156189 352.52829,279.90329 350.803711,281.156189 351.461914,279.128906 349.737305,277.875 351.86911,277.875 "/>
<polygon fill="#FFFFFF" points="340.46579,258.597687 341.125,260.625 343.256805,260.625 341.532196,261.878906 
	342.190399,263.906189 340.46579,262.65329 338.741211,263.906189 339.399414,261.878906 337.674805,260.625 339.80661,260.625 "/>
<polygon fill="#FFFFFF" points="323.15329,255.910202 323.8125,257.9375 325.944305,257.9375 324.219696,259.191406 
	324.877899,261.218689 323.15329,259.96579 321.428711,261.218689 322.086914,259.191406 320.362305,257.9375 322.49411,257.9375 
	"/>
<polygon fill="#FFFFFF" points="328.46579,191.847717 329.125,193.875 331.256805,193.875 329.532196,195.128906 
	330.190399,197.156204 328.46579,195.903305 326.741211,197.156204 327.399414,195.128906 325.674805,193.875 327.80661,193.875 "/>
<polygon fill="#FFFFFF" points="289.46579,223.472702 290.125,225.5 292.256775,225.5 290.532196,226.753906 291.190399,228.781204 
	289.46579,227.528305 287.741211,228.781204 288.399414,226.753906 286.674805,225.5 288.80661,225.5 "/>
<polygon fill="#FFFFFF" points="210.715805,231.722702 211.375,233.75 213.506805,233.75 211.782196,235.003906 
	212.440399,237.031204 210.715805,235.778305 208.991196,237.031204 209.649399,235.003906 207.924805,233.75 210.056595,233.75 "/>
<polygon fill="#FFFFFF" points="352.09079,254.972702 352.75,257 354.881805,257 353.157196,258.253906 353.815399,260.281189 
	352.09079,259.02829 350.366211,260.281189 351.024414,258.253906 349.299805,257 351.43161,257 "/>
<polygon fill="#FFFFFF" points="233.796906,216.878906 234.25,218.274399 235.7173,218.274399 234.530304,219.136703 
	234.983902,220.532196 233.796906,219.669907 232.609894,220.532196 233.063507,219.136703 231.876495,218.274399 
	233.343796,218.274399 "/>
<polygon fill="#FFFFFF" points="294.880402,231.9375 295.333496,233.332993 296.800781,233.332993 295.6138,234.195297 
	296.067383,235.590805 294.880402,234.7285 293.69339,235.590805 294.147003,234.195297 292.959991,233.332993 
	294.427185,233.332993 "/>
<polygon fill="#FFFFFF" points="300.022491,280.6875 300.368683,281.752899 301.489288,281.752899 300.582489,282.411102 
	300.92868,283.476593 300.022491,282.81839 299.11618,283.476593 299.462402,282.411102 298.555695,281.752899 299.6763,281.752899 
	"/>
<path fill="#259C3B" d="M213.979996,163.952103c0.257797,2.854095-1.409698,5.338394-3.723694,5.548401
	c-2.314896,0.209503-4.400803-1.934601-4.660095-4.789108c-0.257812-2.854996,1.409698-5.338791,3.723099-5.548294
	C211.633804,158.953094,213.720703,161.097198,213.979996,163.952103z"/>
<path fill="#FFFFFF" d="M212.363297,164.098099c0.158203,1.754395-0.865692,3.280304-2.287094,3.409195
	c-1.422409,0.128906-2.704102-1.188492-2.863297-2.942398c-0.158203-1.754395,0.865692-3.279694,2.287598-3.408691
	C210.922394,161.027298,212.204102,162.344193,212.363297,164.098099z"/>
<path fill="#259C3B" d="M330.757812,179.600098c-0.944305,2.727005-3.502899,4.317398-5.713898,3.552704
	c-2.210907-0.765106-3.23822-3.596603-2.295929-6.324203c0.944427-2.727005,3.503021-4.317398,5.713928-3.5522
	C330.671906,174.041,331.700195,176.872604,330.757812,179.600098z"/>
<path fill="#FFFFFF" d="M329.197296,179.060104c-0.577209,1.66449-2.138702,2.634201-3.486389,2.167892
	c-1.350494-0.4673-1.977509-2.194794-1.402313-3.858902c0.577118-1.664993,2.138702-2.634201,3.487305-2.167389
	C329.145508,175.668503,329.772491,177.395493,329.197296,179.060104z"/>
<path fill="#259C3B" d="M397.386688,218.872101c-1.864197,2.239197-4.848602,2.828094-6.664001,1.318298
	c-1.816376-1.512695-1.775391-4.552704,0.087799-6.7939c1.864319-2.239304,4.84671-2.828094,6.664124-1.318405
	C399.289093,213.590805,399.25,216.630905,397.386688,218.872101z"/>
<path fill="#FFFFFF" d="M396.086914,217.789093c-1.127899,1.352509-2.932617,1.708908-4.02832,0.797806
	c-1.098602-0.916-1.074188-2.752899,0.051819-4.1064c1.127899-1.3535,2.93158-1.710007,4.02829-0.796906
	C397.236298,214.597702,397.212891,216.434601,396.086914,217.789093z"/>
<path fill="#259C3B" d="M218.274399,158.378906l0.216797,9.972198l1.917511-0.059601l-0.090302-3.780304l3.87059-0.179703
	c0,0,0.900406,0.180206,1.080002,3.600098h1.710007c0,0,0.450195-3.240692-1.350098-4.230392
	c0,0,1.350601-0.449707,1.530289-2.609909c0.179703-2.160095-2.051788-2.845688-3.131897-2.845688
	C222.947296,158.245605,218.274399,158.378906,218.274399,158.378906z"/>
<path fill="#FFFFFF" d="M220.102997,159.909195l0.033707,2.797806c0,0,3.463394-0.083008,4.030304-0.099594
	c1.132797-0.033203,1.099594-2.764603-0.066406-2.764603C223.0327,159.842804,220.102997,159.909195,220.102997,159.909195z"/>
<path fill="#259C3B" d="M231.061996,157.610794l0.133301,9.960007c0,0,3.697296-0.100601,5.762695-0.167007
	c2.065414-0.066391,3.164612-2.897888,3.164612-5.163086c0-2.265106-1.298401-4.729507-3.730499-4.663101
	C233.960007,157.643997,231.061996,157.610794,231.061996,157.610794z"/>
<path fill="#FFFFFF" d="M232.960907,159.342804l0.066391,6.395493c0,0,2.731995-0.033203,3.531296-0.033203
	s1.93161-1.398499,1.93161-3.13089c0-1.732407-1.099106-3.264603-2.131805-3.264603S232.960907,159.342804,232.960907,159.342804z"
	/>
<polygon fill="#259C3B" points="244.252899,157.5439 244.052704,167.503906 252.946793,167.770493 252.946793,165.938507 
	245.718307,165.671906 245.751999,163.106903 251.4478,163.240204 251.4478,161.607895 245.751999,161.474594 
	245.751999,159.376495 252.780304,159.675797 252.780304,157.744095 "/>
<polygon fill="#259C3B" points="257.477112,158.143997 256.611298,167.936996 258.343292,168.003906 258.976105,161.441406 
	260.441895,168.136703 261.873993,168.203598 264.438995,161.9077 264.00589,168.503403 265.638214,168.669907 
	266.471191,158.876495 264.072815,158.743698 261.341309,165.072296 260.008789,158.376999 "/>
<polygon fill="#259C3B" points="278.984406,161.531204 277.421906,170.281204 284.718811,171.640594 285,170 279.328094,168.9375 
	279.75,166.703094 284.328094,167.546906 284.609406,165.875 280.078094,165.031204 280.359406,163.453094 285.796906,164.406204 
	286.0625,162.781204 "/>
<polygon fill="#259C3B" points="360.552704,188.099594 355.485413,196.604507 363.093811,201.115204 364.031311,199.51561 
	357.875,195.95311 359.19339,193.791 363.798798,196.542511 364.75,194.911118 360.19339,192.176804 361.105499,190.643112 
	366.565399,193.84671 367.480499,192.257309 "/>
<path fill="#259C3B" d="M299.109406,164.4375l-2.734406,9.578094l1.718781,0.609406l1.078125-3.765594
	c0,0,2.453094,0.765594,3.624969,1.109299c1.171906,0.343796,3.1875-0.01561,3.765625-1.859299
	c0.578094-1.843811-0.1875-3.390701-1.8125-3.9375C303.125,165.625,299.109406,164.4375,299.109406,164.4375z"/>
<path fill="#FFFFFF" d="M300.3125,166.546906L299.593781,169.25c0,0,3.046814,0.843704,3.609314,1.031204
	s1.234406-0.125,1.515686-0.76561c0.281219-0.640594,0.25-1.54689-0.703186-1.828094
	C303.0625,167.406204,300.3125,166.546906,300.3125,166.546906z"/>
<path fill="#259C3B" d="M311.875,167.921906l-3.265625,9.421799l1.796936,0.60939l1.171783-3.656189l3.828217,1.234299
	c0,0,0.421783,1.79689-0.218811,3.765701l1.546906,0.546799c0,0,0.906189-2.875,0.281189-4.234299
	c0,0,1.593811-0.234406,2.156311-1.890701c0.5625-1.656204-0.453094-3.296799-1.6875-3.843704
	S311.875,167.921906,311.875,167.921906z"/>
<path fill="#FFFFFF" d="M312.828094,170.078094l-0.734283,2.57811c0,0,2.9375,1.015701,3.578094,1.23439
	c0.640594,0.218811,1.375-0.17189,1.640594-0.890594c0.265594-0.718796,0-1.4375-1.125-1.8125
	S312.828094,170.078094,312.828094,170.078094z"/>
<path fill="#259C3B" d="M348.834015,182.167007l-4.669922,8.810501l1.68161,0.877487l1.718811-3.433594l3.593689,1.806107
	c0,0,0.141602,1.840408-0.792999,3.687485l1.444397,0.77742c0,0,1.335907-2.702209,0.926697-4.141098
	c0,0,1.611389,0.012192,2.420898-1.538116c0.809601-1.550797,0.056702-3.327698-1.079102-4.057098
	C352.942413,184.226593,348.834015,182.167007,348.834015,182.167007z"/>
<path fill="#FFFFFF" d="M349.445312,184.443802l-1.120117,2.435104c0,0,2.747101,1.453598,3.34671,1.768097
	c0.599609,0.314392,1.384705,0.040497,1.757782-0.628906c0.372101-0.669495,0.219727-1.420395-0.833984-1.963394
	C351.540985,185.511703,349.445312,184.443802,349.445312,184.443802z"/>
<path fill="#259C3B" d="M342.756805,184.825699l-3.341797-1.561096l-0.680603,1.320801l1.441406,0.680695
	c-0.817413,0.696304-2.076202,0.865707-2.953125,0.451706c-1.291992-0.610901-1.728577-2.3965-0.9776-3.988297
	c0.752899-1.592804,2.410217-2.389206,3.700226-1.779312c0.817383,0.385712,1.289093,1.24321,1.337891,2.224106l1.468811,0.695801
	c0.287079-1.960403-0.463928-3.814896-2.033203-4.557602c-2.024506-0.955093-4.621124,0.292999-5.800812,2.789093
	c-1.176788,2.497009-0.492188,5.29631,1.531189,6.252411c1.132812,0.534195,2.664124,0.492203,3.806702-0.186996l-0.760803,1.520996
	l1.180725,0.640091L342.756805,184.825699z"/>
<path fill="#259C3B" d="M375.84671,200.727509l1.628876,1.0186c0,0,0.407227-0.552704,0.407227-1.658203
	c0-1.104996-0.698212-2.268097-2.414001-3.227997c-1.715912-0.959991-3.606506-1.541504-4.682709-0.261795
	c-1.076111,1.2798-1.017517,2.471191,0.7276,4.333084c1.745087,1.861801,2.616211,2.966309,1.889587,3.635208
	c-0.726501,0.668991-2.121979-0.20311-2.674805-0.755905c-0.552673-0.552704-1.046875-1.599594-0.785095-2.239197
	l-1.803802-1.076202c0,0-0.463776,0.668015-0.435486,1.424805c0.02829,0.756897,0.377899,2.007797,2.239288,3.257797
	c1.861298,1.25,4.275421,2.064499,5.525421,0.319397s0.435486-2.878906-1.22171-4.478485
	c-1.657288-1.599716-2.268616-2.617203-1.599609-3.082611c0.668915-0.465302,1.773407-0.058594,2.500916,0.6978
	C375.876007,199.390106,375.933594,199.970703,375.84671,200.727509z"/>
<path fill="#259C3B" d="M386.700195,208.088898l1.593719,1.072205c0,0,0.425781-0.539001,0.462891-1.643509
	c0.037109-1.1035-0.622009-2.291-2.304718-3.306686c-1.682587-1.017502-3.552673-1.662109-4.670776-0.4189
	c-1.119202,1.243195-1.100616,2.435486,0.580994,4.354492c1.682587,1.919907,2.515594,3.052704,1.767609,3.697205
	c-0.749023,0.6436-2.114319-0.274399-2.648499-0.845703c-0.534119-0.570297-0.992126-1.633698-0.7099-2.263596l-1.766602-1.136703
	c0,0-0.485413,0.652298-0.482422,1.409103c0.002899,0.757797,0.310516,2.019592,2.128906,3.3311
	c1.818298,1.3125,4.203094,2.207001,5.510712,0.504898c1.308594-1.702209,0.532196-2.862305-1.070312-4.516602
	s-2.179688-2.692398-1.495087-3.134796c0.683594-0.442413,1.774384,0.000992,2.475586,0.781296
	C386.774414,206.751999,386.8125,207.335007,386.700195,208.088898z"/>
</svg>
